<svg width="24" height="72" viewBox="0 0 24 72" fill="none" xmlns="http://www.w3.org/2000/svg">
<path d="M16 14L12 10L8 14" stroke="#CFCFCF" stroke-width="1.5" stroke-linecap="round" stroke-linejoin="round"/>
<path d="M8 58L12 62L16 58" stroke="#CFCFCF" stroke-width="1.5" stroke-linecap="round" stroke-linejoin="round"/>
<path d="M8.49724 41.5023C8.22212 41.5023 7.99703 41.7274 8.00003 42.0025C8.00003 42.2776 8.22512 42.5027 8.50024 42.5027C8.77535 42.5027 9.00045 42.2776 9.00045 42.0025C9.00045 41.7274 8.77535 41.5023 8.49724 41.5023" stroke="#757575" stroke-width="1.5" stroke-linecap="round" stroke-linejoin="round"/>
<path d="M8.49724 35.4998C8.22212 35.4998 7.99703 35.7249 8.00003 36C8.00003 36.2751 8.22512 36.5002 8.50024 36.5002C8.77535 36.5002 9.00045 36.2751 9.00045 36C9.00045 35.7249 8.77535 35.4998 8.49724 35.4998" stroke="#757575" stroke-width="1.5" stroke-linecap="round" stroke-linejoin="round"/>
<path d="M8.49724 29.4973C8.22212 29.4973 7.99703 29.7224 8.00003 29.9975C8.00003 30.2726 8.22512 30.4977 8.50024 30.4977C8.77535 30.4977 9.00045 30.2726 9.00045 29.9975C9.00045 29.7224 8.77535 29.4973 8.49724 29.4973" stroke="#757575" stroke-width="1.5" stroke-linecap="round" stroke-linejoin="round"/>
<path d="M14.9975 41.5023C14.7224 41.5023 14.4973 41.7274 14.5003 42.0025C14.5003 42.2776 14.7254 42.5027 15.0005 42.5027C15.2756 42.5027 15.5007 42.2776 15.5007 42.0025C15.5007 41.7274 15.2756 41.5023 14.9975 41.5023" stroke="#757575" stroke-width="1.5" stroke-linecap="round" stroke-linejoin="round"/>
<path d="M14.9975 35.4998C14.7224 35.4998 14.4973 35.7249 14.5003 36C14.5003 36.2751 14.7254 36.5002 15.0005 36.5002C15.2756 36.5002 15.5007 36.2751 15.5007 36C15.5007 35.7249 15.2756 35.4998 14.9975 35.4998" stroke="#757575" stroke-width="1.5" stroke-linecap="round" stroke-linejoin="round"/>
<path d="M14.9975 29.4973C14.7224 29.4973 14.4973 29.7224 14.5003 29.9975C14.5003 30.2726 14.7254 30.4977 15.0005 30.4977C15.2756 30.4977 15.5007 30.2726 15.5007 29.9975C15.5007 29.7224 15.2756 29.4973 14.9975 29.4973" stroke="#757575" stroke-width="1.5" stroke-linecap="round" stroke-linejoin="round"/>
</svg>
